<svg viewBox="0 0 1200 800" xmlns="http://www.w3.org/2000/svg">
  <defs>
    <marker id="arrowhead" markerWidth="10" markerHeight="7" refX="9" refY="3.5" orient="auto">
      <polygon points="0 0, 10 3.5, 0 7" fill="#333" />
    </marker>
    <linearGradient id="hexGradient" x1="0%" y1="0%" x2="100%" y2="100%">
      <stop offset="0%" style="stop-color:#4A90E2;stop-opacity:1" />
      <stop offset="100%" style="stop-color:#357ABD;stop-opacity:1" />
    </linearGradient>
    <linearGradient id="coreGradient" x1="0%" y1="0%" x2="100%" y2="100%">
      <stop offset="0%" style="stop-color:#50C878;stop-opacity:1" />
      <stop offset="100%" style="stop-color:#3CB371;stop-opacity:1" />
    </linearGradient>
  </defs>
  
  <!-- Title -->
  <text x="600" y="40" font-family="Arial, sans-serif" font-size="28" font-weight="bold" text-anchor="middle" fill="#2C3E50">In4me Architecture Overview</text>
  
  <!-- External Systems -->
  <g id="external-systems">
    <!-- Web Sources -->
    <rect x="50" y="100" width="150" height="80" rx="10" fill="#E8F4F8" stroke="#4A90E2" stroke-width="2"/>
    <text x="125" y="135" font-family="Arial, sans-serif" font-size="14" font-weight="bold" text-anchor="middle" fill="#2C3E50">Web Sources</text>
    <text x="125" y="155" font-family="Arial, sans-serif" font-size="12" text-anchor="middle" fill="#555">HTTP/RSS/APIs</text>
    
    <!-- File Systems -->
    <rect x="50" y="200" width="150" height="80" rx="10" fill="#E8F4F8" stroke="#4A90E2" stroke-width="2"/>
    <text x="125" y="235" font-family="Arial, sans-serif" font-size="14" font-weight="bold" text-anchor="middle" fill="#2C3E50">File Systems</text>
    <text x="125" y="255" font-family="Arial, sans-serif" font-size="12" text-anchor="middle" fill="#555">Local/Network</text>
    
    <!-- ML/NLP Services -->
    <rect x="50" y="300" width="150" height="80" rx="10" fill="#E8F4F8" stroke="#4A90E2" stroke-width="2"/>
    <text x="125" y="335" font-family="Arial, sans-serif" font-size="14" font-weight="bold" text-anchor="middle" fill="#2C3E50">ML/NLP Services</text>
    <text x="125" y="355" font-family="Arial, sans-serif" font-size="12" text-anchor="middle" fill="#555">TensorFlow/LLMs</text>
    
    <!-- Databases -->
    <rect x="50" y="400" width="150" height="80" rx="10" fill="#E8F4F8" stroke="#4A90E2" stroke-width="2"/>
    <text x="125" y="435" font-family="Arial, sans-serif" font-size="14" font-weight="bold" text-anchor="middle" fill="#2C3E50">Databases</text>
    <text x="125" y="455" font-family="Arial, sans-serif" font-size="12" text-anchor="middle" fill="#555">MySQL/SQLite</text>
  </g>
  
  <!-- Hexagonal Architecture Core -->
  <g id="hexagon-core">
    <!-- Outer Hexagon (Infrastructure) -->
    <path d="M 600 150 L 750 225 L 750 375 L 600 450 L 450 375 L 450 225 Z" 
          fill="url(#hexGradient)" fill-opacity="0.3" stroke="#4A90E2" stroke-width="3"/>
    <text x="600" y="130" font-family="Arial, sans-serif" font-size="16" font-weight="bold" text-anchor="middle" fill="#4A90E2">Infrastructure Layer</text>
    
    <!-- Middle Hexagon (Application) -->
    <path d="M 600 200 L 700 250 L 700 350 L 600 400 L 500 350 L 500 250 Z" 
          fill="url(#coreGradient)" fill-opacity="0.3" stroke="#50C878" stroke-width="3"/>
    <text x="600" y="185" font-family="Arial, sans-serif" font-size="14" font-weight="bold" text-anchor="middle" fill="#3CB371">Application Layer</text>
    
    <!-- Inner Hexagon (Domain) -->
    <path d="M 600 250 L 650 275 L 650 325 L 600 350 L 550 325 L 550 275 Z" 
          fill="#FFF9E5" stroke="#F39C12" stroke-width="3"/>
    <text x="600" y="295" font-family="Arial, sans-serif" font-size="12" font-weight="bold" text-anchor="middle" fill="#D68910">Domain</text>
    <text x="600" y="310" font-family="Arial, sans-serif" font-size="12" font-weight="bold" text-anchor="middle" fill="#D68910">Core</text>
  </g>
  
  <!-- Output Systems -->
  <g id="output-systems">
    <!-- HTTP APIs -->
    <rect x="1000" y="100" width="150" height="80" rx="10" fill="#E8F4F8" stroke="#4A90E2" stroke-width="2"/>
    <text x="1075" y="135" font-family="Arial, sans-serif" font-size="14" font-weight="bold" text-anchor="middle" fill="#2C3E50">HTTP APIs</text>
    <text x="1075" y="155" font-family="Arial, sans-serif" font-size="12" text-anchor="middle" fill="#555">REST/GraphQL</text>
    
    <!-- Notifications -->
    <rect x="1000" y="200" width="150" height="80" rx="10" fill="#E8F4F8" stroke="#4A90E2" stroke-width="2"/>
    <text x="1075" y="235" font-family="Arial, sans-serif" font-size="14" font-weight="bold" text-anchor="middle" fill="#2C3E50">Notifications</text>
    <text x="1075" y="255" font-family="Arial, sans-serif" font-size="12" text-anchor="middle" fill="#555">Email/SMS/Push</text>
    
    <!-- File Storage -->
    <rect x="1000" y="300" width="150" height="80" rx="10" fill="#E8F4F8" stroke="#4A90E2" stroke-width="2"/>
    <text x="1075" y="335" font-family="Arial, sans-serif" font-size="14" font-weight="bold" text-anchor="middle" fill="#2C3E50">File Storage</text>
    <text x="1075" y="355" font-family="Arial, sans-serif" font-size="12" text-anchor="middle" fill="#555">JSON/XML/CSV</text>
    
    <!-- Search Engines -->
    <rect x="1000" y="400" width="150" height="80" rx="10" fill="#E8F4F8" stroke="#4A90E2" stroke-width="2"/>
    <text x="1075" y="435" font-family="Arial, sans-serif" font-size="14" font-weight="bold" text-anchor="middle" fill="#2C3E50">Search Engines</text>
    <text x="1075" y="455" font-family="Arial, sans-serif" font-size="12" text-anchor="middle" fill="#555">Elasticsearch</text>
  </g>
  
  <!-- Arrows -->
  <!-- Input arrows -->
  <line x1="200" y1="140" x2="450" y2="250" stroke="#666" stroke-width="2" marker-end="url(#arrowhead)"/>
  <line x1="200" y1="240" x2="450" y2="275" stroke="#666" stroke-width="2" marker-end="url(#arrowhead)"/>
  <line x1="200" y1="340" x2="450" y2="325" stroke="#666" stroke-width="2" marker-end="url(#arrowhead)"/>
  <line x1="200" y1="440" x2="450" y2="350" stroke="#666" stroke-width="2" marker-end="url(#arrowhead)"/>
  
  <!-- Output arrows -->
  <line x1="750" y1="250" x2="1000" y2="140" stroke="#666" stroke-width="2" marker-end="url(#arrowhead)"/>
  <line x1="750" y1="275" x2="1000" y2="240" stroke="#666" stroke-width="2" marker-end="url(#arrowhead)"/>
  <line x1="750" y1="325" x2="1000" y2="340" stroke="#666" stroke-width="2" marker-end="url(#arrowhead)"/>
  <line x1="750" y1="350" x2="1000" y2="440" stroke="#666" stroke-width="2" marker-end="url(#arrowhead)"/>
  
  <!-- Platform Services -->
  <rect x="400" y="520" width="400" height="200" rx="15" fill="#F0F8FF" stroke="#4682B4" stroke-width="2" stroke-dasharray="5,5"/>
  <text x="600" y="545" font-family="Arial, sans-serif" font-size="18" font-weight="bold" text-anchor="middle" fill="#2C3E50">Platform Services</text>
  
  <!-- Service boxes -->
  <rect x="420" y="560" width="160" height="50" rx="8" fill="#E6F3FF" stroke="#4682B4" stroke-width="1"/>
  <text x="500" y="590" font-family="Arial, sans-serif" font-size="12" text-anchor="middle" fill="#333">Scheduler</text>
  
  <rect x="620" y="560" width="160" height="50" rx="8" fill="#E6F3FF" stroke="#4682B4" stroke-width="1"/>
  <text x="700" y="590" font-family="Arial, sans-serif" font-size="12" text-anchor="middle" fill="#333">Queue Manager</text>
  
  <rect x="420" y="630" width="160" height="50" rx="8" fill="#E6F3FF" stroke="#4682B4" stroke-width="1"/>
  <text x="500" y="660" font-family="Arial, sans-serif" font-size="12" text-anchor="middle" fill="#333">Notification Manager</text>
  
  <rect x="620" y="630" width="160" height="50" rx="8" fill="#E6F3FF" stroke="#4682B4" stroke-width="1"/>
  <text x="700" y="660" font-family="Arial, sans-serif" font-size="12" text-anchor="middle" fill="#333">Event Manager</text>
  
  <!-- Legend -->
  <text x="50" y="750" font-family="Arial, sans-serif" font-size="14" font-weight="bold" fill="#2C3E50">Legend:</text>
  <rect x="120" y="735" width="20" height="15" fill="url(#hexGradient)" fill-opacity="0.3" stroke="#4A90E2" stroke-width="2"/>
  <text x="145" y="747" font-family="Arial, sans-serif" font-size="12" fill="#555">Infrastructure</text>
  
  <rect x="250" y="735" width="20" height="15" fill="url(#coreGradient)" fill-opacity="0.3" stroke="#50C878" stroke-width="2"/>
  <text x="275" y="747" font-family="Arial, sans-serif" font-size="12" fill="#555">Application</text>
  
  <rect x="380" y="735" width="20" height="15" fill="#FFF9E5" stroke="#F39C12" stroke-width="2"/>
  <text x="405" y="747" font-family="Arial, sans-serif" font-size="12" fill="#555">Domain Core</text>
</svg>